<svg id="Bing" xmlns="http://www.w3.org/2000/svg" width="91.62" height="90.29" viewBox="0 0 91.62 90.29">
  <defs>
    <style>


      .cls-1 {
        fill: #fdb715;
      }
    </style>
  </defs>
  <path id="center" class="cls-1" d="M65.7,45.18A20.36,20.36,0,1,1,45.34,24.81,20.36,20.36,0,0,1,65.7,45.18Z"/>
  <path id="even_light" class="cls-1" d="M.1,49.91C4.14,47.06,22,36,22.69,41.27c0,.06.06.1.06.17l-.06-.17c0,.63-.79,1.49.09,7.59.24,1.71-1.12,2.75-2.27,2C17.07,48.69,8.35,47.79.3,50.34A.24.24,0,0,1,.1,49.91ZM28.47,87.06c1.27-8.35,5.94-15.77,9.42-17.89,1.16-.71.83-2.39-.81-2.93-5.86-1.91-6.27-3-6.84-3.27h.17c-.05,0-.12,0-.17,0-5.06-1.71-3,19.2-2.24,24.07A.24.24,0,0,0,28.47,87.06ZM71.1,82.44c-6.06-5.87-9.41-14-9.12-18,.1-1.35-1.46-2.06-2.85-1C54.17,67,53,66.7,52.49,67l.12-.14s-.07.1-.12.14C48.18,70.17,66.4,80.61,70.82,82.81A.23.23,0,0,0,71.1,82.44ZM91.35,42.69c-8.26,1.74-16.85,0-20.06-2.53-1.07-.84-2.53.06-2.45,1.79.26,6.16-.64,6.93-.66,7.56l-.05-.18c0,.07,0,.12.05.18.18,5.33,19-3.94,23.32-6.38A.24.24,0,0,0,91.35,42.69Zm-27-38.88C62.41,12,57.2,19.09,53.56,20.94c-1.21.61-1,2.31.59,3,5.7,2.36,6,3.51,6.58,3.79l-.18,0c.05,0,.12,0,.18,0,4.91,2.08,4.45-18.92,4.05-23.84A.24.24,0,0,0,64.31,3.81ZM20,7.82c5.8,6.14,8.78,14.38,8.31,18.43-.16,1.35,1.37,2.13,2.8,1.16,5.12-3.44,6.25-3.07,6.8-3.38l-.12.13s.07-.09.12-.13C42.32,21.1,24.58,9.85,20.26,7.46A.24.24,0,0,0,20,7.82Z"/>
  <path id="odd_light" class="cls-1" d="M4.65,24.88c4.93-.24,25.93-.05,23.7,4.79,0,.06,0,.12,0,.18l0-.18c-.3.55-1.46.84-4,6.46-.7,1.57-2.41,1.72-3,.49-1.73-3.69-8.62-9.12-16.78-11.28A.23.23,0,0,1,4.65,24.88Zm2.89,45.8c6.38-5.52,14.75-8.14,18.78-7.49,1.34.22,2.18-1.28,1.28-2.75-3.21-5.26-2.8-6.38-3.08-6.94l.13.13c0-.06-.1-.07-.13-.13C21.78,48.93,9.77,66.16,7.19,70.37A.24.24,0,0,0,7.54,70.68ZM49.53,90c-2.29-8.13-1.11-16.82,1.18-20.19.77-1.12-.23-2.51-1.94-2.32-6.13.67-7-.18-7.59-.16l.17-.06c-.06,0-.11.06-.17.06-5.31.54,5.2,18.73,7.92,22.85A.24.24,0,0,0,49.53,90ZM86.85,63.86c-8.27-1.72-15.43-6.77-17.36-10.37-.64-1.19-2.34-1-3,.66-2.23,5.75-3.37,6.09-3.64,6.66l0-.18s0,.12,0,.18c-2,5,19,4,23.92,3.52A.24.24,0,0,0,86.85,63.86ZM83.08,19.62c-6.14,5.8-14.39,8.78-18.44,8.3-1.35-.16-2.12,1.37-1.16,2.81,3.44,5.11,3.07,6.25,3.38,6.79l-.13-.12c0,.06.1.07.13.12C69.79,42,81,24.24,83.44,19.92A.24.24,0,0,0,83.08,19.62ZM40.53.3c2.77,8,2.11,16.72,0,20.22-.7,1.17.38,2.5,2.08,2.21,6.08-1,7-.23,7.58-.29l-.16.07c.06,0,.1-.06.16-.07C55.47,21.59,43.91,4.05,41,.1A.24.24,0,0,0,40.53.3Z"/>
</svg>
