<svg id="Layer_1" data-name="Layer 1" xmlns="http://www.w3.org/2000/svg" width="353.67" height="448.5" viewBox="0 0 353.67 448.5">
  <defs>
    <style>
      #Layer_1:hover .cls-1 { fill: #F2400F; }

      .cls-1, .cls-2 {
        fill: #fdb715;
        transition: all ease 2s;
      }

      .cls-2 {
        stroke: #fbb040;
        stroke-miterlimit: 10;
      }
    </style>
  </defs>
  <path class="cls-1" d="M128.79,51.2c14.16,27.89,4.89,49.94-2.06,60.77a43.82,43.82,0,0,0-6.88,23.63c0,18.75,4.93,47,35,47,39.71,0,38.14-29.6,37.23-36.55a.73.73,0,0,1,1.08-.74c51.27,28.72,26.69,113.34,26.69,113.34s-17,55.95,38,50.95c52.81-4.81,42-68.63,41.06-73.69a.08.08,0,0,1,.15-.07c2.05,2.39,18,22.7,20.79,79.76,2.69,54.79-25.28,67.63-31,69.67a1,1,0,0,0-.13,1.79c4.09,2.17,21.5-5.16,28.34-8.2a1.12,1.12,0,0,1,1.46,1.51c-35.17,72.74-68,69.75-77.14,67.15a1.43,1.43,0,0,1-.49-2.5c14.93-12,13.85-22.76,12.21-27.65a1.83,1.83,0,0,0-3.1-.64c-13.57,15.11-25.52,15.79-31.36,14.88a1.82,1.82,0,0,1-.88-3.2c12.82-10.77,14.46-28.92,14.39-38.11a3,3,0,0,0-4.77-2.44c-27.09,18.77-40.53,9.76-46.45,6.21-1.45-.87-2.58-2.18-3.95-3.17-35.47-25.45-5.13-72.3-5.13-72.3-60,13-54,77-54,77-47-9-45.17-49-45.17-49-13.17,57,27.17,100,27.17,100-99-12-95-131-74-141,18.66-8.89,20.74-32,21-37a.7.7,0,0,1,1-.61c12.07,5.34,12.79,37.64,12.79,37.64,22.81-3.18,22.8-40,21.82-55.1a28.92,28.92,0,0,0-3.06-11.18C53.51,188,61.56,149.69,69.1,130.76A39.06,39.06,0,0,1,84,112.69c41.06-27.13,44.06-51.78,43.44-61.13A.71.71,0,0,1,128.79,51.2Z"/>
  <path id="Small_odd" class="cls-2" d="M27.28,232.77c6,10.26,6.35,9.89,11.58,26.28s-5.23,20.61-5.23,20.61c5.6-2.93-2.62-24.54-2.62-24.54-11.21-20.88-6.35-40.29-6.35-40.29C24.29,226.55,27.28,232.77,27.28,232.77ZM316,420.7c8.67-9,28.47-30,34.35-53.71.24-.95,1-3.72,1.23-4.66,1.34-4.72,5.7-24.83-10.4-44.24,2.69,7.44,5.67,36.34-6,64.34,0,0-10.37,24.3-19.76,37.8A.37.37,0,0,0,316,420.7ZM270.6,186.15s13.22,5.73,15.4,22.49c0,0,4.95-16.87-4.63-20C273.94,186.15,272.23,186.15,270.6,186.15Zm-65.71-53.07s-18-4.77-22.09-34.65c0,0-8,11-.89,31.29,0,0-1-17.87,7.48-3.72C189.39,126,193.67,135.24,204.89,133.08Zm-81-106.77s-8.48-6.9-4.24-24.93c0,0-11.32,9.72-2.65,20C117,21.36,117.57,23.48,123.93,26.31Z"/>
  <path id="small_even" class="cls-1" d="M13.67,386.12l-2.49-8.46c4.37,21,21.72,42.2,31.26,48.37a.78.78,0,0,1-.73,1.37C14.63,416.7,6.55,396.69,6.55,396.69-4.22,375.62.89,352.31,3.69,332.94a1.11,1.11,0,0,1,2.21.17C5.6,363.12,13.25,385,13.67,386.12Zm272.72-139s2.18,21-12.31,33.81c0,0,8.69-1.45,14.49-16.9a25.63,25.63,0,0,0-2.18-16.91m-52.19-5.45s17-29,9.41-58.2c0,0-10.5-28.9-26.58-39.13,0,0,23.17,30.27,22.62,43.76C239.65,188.06,245.11,216.69,234.2,241.63ZM142.92,46.85c.33.76,2,7.2,2.21,8,1.56,5.85,2,23.07,2,23.07,2.83-9.27,2.85-19.3,2.65-24.06a31.71,31.71,0,0,0-.86-6.37c-4.14-16.64-18.59-15.7-18.59-15.7C136.64,33.48,141.3,43,142.92,46.85Z"/>
</svg>
