<svg id="Geng" xmlns="http://www.w3.org/2000/svg" width="58.87" height="225.25" viewBox="0 0 58.87 225.25">
  <defs>
    <style>
      .cls-1 {
        fill: #fdb715;
      }

      .cls-1, .cls-2 {
        stroke: #fdb715;
        stroke-miterlimit: 10;
      }

      .cls-2 {
        fill: #fff;
      }
    </style>
  </defs>
  <path id="Blade" class="cls-1" d="M29.08,224.62l-4.47-24.81a2.19,2.19,0,0,1,0-.36L22.63,53.33H35.31l-1.3,146a7.63,7.63,0,0,1-.15,1.43l-4.78,23.82C29.05,224.79,29.12,224.79,29.08,224.62Z"/>
  <path id="hander" class="cls-2" d="M57.26,53.33H1.61A1.11,1.11,0,0,1,.5,52.22v-2A1.12,1.12,0,0,1,1.61,49.1H57.26a1.12,1.12,0,0,1,1.11,1.12v2A1.11,1.11,0,0,1,57.26,53.33Z"/>
  <path id="handle" class="cls-1" d="M24.25,14.8h9.43V48.94H24.25ZM29,.5a8,8,0,1,0,8,8A8,8,0,0,0,29,.5Z"/>
</svg>
