<svg id="Gui" xmlns="http://www.w3.org/2000/svg" width="160.6" height="97.02" viewBox="0 0 160.6 97.02">
  <defs>
    <style>
      #Gui:hover .cls-2 { fill: #1C75BC; }

      #Gui:hover .cls-2 { transform: rotate(25deg); }

      #Gui:hover .cls-1 { opacity: 0; }
      .cls-1, .cls-2 {
        fill: none;
        stroke: #fdb715;
        stroke-miterlimit: 10;
        transition: all ease 2s;
      }

      .cls-1 {
        stroke-width: 6px;
        transition: all ease 0.5s;
      }

      .cls-2 {
        stroke-width: 2px;
        transition: all ease 2s;
      }
    </style>
  </defs>
  <path id="River" class="cls-1" d="M2.55,87.83s10,16.13,38.21-3.69c1.8-1.27,6.59-2,11.05-2.15a21.83,21.83,0,0,1,12.3,3.35l7,4.38a21.18,21.18,0,0,0,3.28,1.69c4.51,1.87,6.6,2.9,13.67,2.12l23-10.67a12.45,12.45,0,0,1,10.41,0L130,86.8a35.71,35.71,0,0,0,29.38.2h0"/>
  <path id="round_point" class="cls-2" d="M50.41,11.7c11,15,7.7,21.19,3.75,23.68a9.5,9.5,0,0,1-8.09.81c-15.6-5.22-2.3-20.28,2-24.68A1.52,1.52,0,0,1,50.41,11.7ZM76.92,46.8C71.86,52.24,61.58,65.48,76,70.3a9.53,9.53,0,0,0,8.09-.8c3.83-2.42,7.08-8.29-2.82-22.39A2.81,2.81,0,0,0,76.92,46.8Zm-32.24-15s2.34,2.28,9.17,0M25,66.75c-3.58,4.69-9.54,14.55,1.66,16.52a2.63,2.63,0,0,0,.84,0c2.38-.35,13.28-2.73,1.69-16.61A2.69,2.69,0,0,0,25,66.75ZM134.68,58c-3.58,4.69-9.54,14.54,1.66,16.52a3,3,0,0,0,.84,0c2.38-.35,13.28-2.74,1.69-16.62A2.69,2.69,0,0,0,134.68,58ZM107.83,24c-3.58,4.69-9.54,14.55,1.66,16.52a2.63,2.63,0,0,0,.84,0c2.38-.35,13.28-2.73,1.69-16.62A2.69,2.69,0,0,0,107.83,24Z"/>
  <path id="small_point" class="cls-2" d="M64.84,9.69c0,1.2-.33,2.17-.73,2.17s-.72-1-.72-2.17.32-2.17.72-2.17S64.84,8.49,64.84,9.69ZM130.58,26.2c-.4,0-.72,1-.72,2.17s.32,2.17.72,2.17.73-1,.73-2.17S131,26.2,130.58,26.2ZM12.71,68.67c-.4,0-.72,1-.72,2.17s.32,2.17.72,2.17.73-1,.73-2.17S13.11,68.67,12.71,68.67ZM27.3,50.59c-.4,0-.72,1-.72,2.17s.32,2.18.72,2.18S28,54,28,52.76,27.7,50.59,27.3,50.59ZM33.71,1C33.31,1,33,2,33,3.17s.33,2.17.73,2.17.72-1,.72-2.17S34.11,1,33.71,1ZM97.42,52.76c-.4,0-.73,1-.73,2.18s.33,2.17.73,2.17.72-1,.72-2.17S97.82,52.76,97.42,52.76Z"/>
</svg>
