<svg id="Jia" xmlns="http://www.w3.org/2000/svg" width="91.13" height="102.86" viewBox="0 0 91.13 102.86">
  <defs>
    <style>
      .cls-1, .cls-2 {
        fill: #red;
      }

      .cls-1 {
        stroke: #fdb715;
        stroke-miterlimit: 10;
      }
    </style>
  </defs>
  <path id="top" class="cls-1" d="M71.77,23.83a.51.51,0,0,1-.06.85c-12.24,7.14-26,7.18-36.11,5.46C24.15,28.2,18.43,25,20.89,23.71,32.69,17.39,45.84.26,46.06.5,54.78,10.89,58,15.79,71.77,23.83Z"/>
  <path id="middle" class="cls-1" d="M58.31,29.76c.6,3,18.85,15.75,24,19.06.59.38,1.3.31.72.69-15.15,9.88-40.68,11.05-56.67,8-12.1-2.33-19.85-7-16.57-8.42C23.63,43.22,35,30.14,35,30.14"/>
  <path id="bottom" class="cls-1" d="M64.69,55.61c2.94,5.11,16.91,12.77,25.37,15.85A1,1,0,0,1,90.31,73c-39,34.94-96.83,1.77-89.11-1A61.52,61.52,0,0,0,25.76,55.73"/>
  <path id="trunk" class="cls-2" d="M55.15,86.48v15a.86.86,0,0,1-.85.87H37a1.17,1.17,0,0,1-1.15-1.19V85.9"/>
</svg>
