<svg id="River" xmlns="http://www.w3.org/2000/svg" width="162.58" height="87.36" viewBox="0 0 162.58 87.36">
  <defs>
    <style>
      .cls-1 {
        fill: none;
        stroke: #fdb715;
        stroke-miterlimit: 10;
        stroke-width: 6px;
      }
    </style>
  </defs>
  <path id="Even_river" class="cls-1" d="M161.36,25.54h0a35.64,35.64,0,0,1-29.38-.2l-8.57-3.94a12.45,12.45,0,0,0-10.41,0L90,32.08c-7.08.77-9.17-.25-13.68-2.12a22.09,22.09,0,0,1-3.28-1.69l-7-4.38a21.84,21.84,0,0,0-12.31-3.35c-4.46.14-9.25.88-11.05,2.15C14.56,42.5,4.52,26.38,4.52,26.38m-2,34.53s10,16.12,38.21-3.69c1.8-1.27,6.59-2,11.05-2.16a21.83,21.83,0,0,1,12.3,3.35l7,4.38a22.14,22.14,0,0,0,3.28,1.7C78.88,66.36,81,67.38,88,66.61l23-10.68a12.45,12.45,0,0,1,10.41,0L130,59.87a35.67,35.67,0,0,0,29.38.2h0"/>
  <g id="odd_river">
    <path class="cls-1" d="M2.55,9.11s10,16.13,38.21-3.68c1.8-1.27,6.59-2,11.05-2.16a21.83,21.83,0,0,1,12.3,3.35l7,4.38a21.18,21.18,0,0,0,3.28,1.69c4.51,1.87,6.6,2.9,13.67,2.13L111,4.14a12.45,12.45,0,0,1,10.41,0L130,8.08a35.67,35.67,0,0,0,29.38.2h0"/>
    <path class="cls-1" d="M2.55,43.64s10,16.13,38.21-3.69c1.8-1.27,6.59-2,11.05-2.15a21.83,21.83,0,0,1,12.3,3.35l7,4.38a21.18,21.18,0,0,0,3.28,1.69c4.51,1.87,6.6,2.9,13.67,2.12l23-10.67a12.45,12.45,0,0,1,10.41,0L130,42.61a35.71,35.71,0,0,0,29.38.2h0"/>
    <path class="cls-1" d="M2.55,78.17s10,16.12,38.21-3.69c1.8-1.27,6.59-2,11.05-2.15a21.83,21.83,0,0,1,12.3,3.35l7,4.38a22.09,22.09,0,0,0,3.28,1.69C78.88,83.62,81,84.64,88,83.87l23-10.68a12.53,12.53,0,0,1,10.41,0l8.57,4a35.71,35.71,0,0,0,29.38.2h0"/>
  </g>
</svg>
