<svg id="Wu" xmlns="http://www.w3.org/2000/svg" width="103.51" height="110.34" viewBox="0 0 103.51 110.34">
  <defs>
    <style>
      .cls-1 {
        fill: #fdb715;
      }

      .cls-1, .cls-2 {
        stroke: #fdb715;
        stroke-miterlimit: 10;
      }

      .cls-2 {
        fill: none;
      }
    </style>
  </defs>
  <path id="Tech" class="cls-1" d="M58,49.43h3.94a2.23,2.23,0,0,1,2.24,2.26L64,62.45A2.2,2.2,0,0,0,64.64,64l2,2.06a2.23,2.23,0,0,0,3,.2l1.79-1.42a2.24,2.24,0,0,0,.84-1.75V51.66a2.23,2.23,0,0,1,2.24-2.23h3.6a2.23,2.23,0,0,1,2.24,2.23V66.6a2.26,2.26,0,0,1-.69,1.62l-9.74,9.32a2.23,2.23,0,0,1-3,0L56.48,68.22a2.24,2.24,0,0,1-.74-1.66V51.66A2.24,2.24,0,0,1,58,49.43Z"/>
  <path id="Hander" class="cls-2" d="M63.29,51.79V28.93a4.25,4.25,0,0,0-1-2.73L55.53,18a7,7,0,0,1-1.62-4.5V5.22a4.32,4.32,0,0,1,2.7-4,7.07,7.07,0,0,1,1.52-.4S74.62.26,77.74.63h.09A4.26,4.26,0,0,1,81.44,4.9v9.22a5.72,5.72,0,0,1-1.14,3.43l-6.46,8.66a3.51,3.51,0,0,0-.7,2.1V51M62,5.93A1.46,1.46,0,0,0,60.52,7.4V13a3,3,0,0,0,1.21,2.43l4.37,3.31a3.27,3.27,0,0,0,3.9,0l4.17-3A3.39,3.39,0,0,0,75.56,13V7.6a1.67,1.67,0,0,0-1.67-1.67Z"/>
  <path id="Ground_Structure" class="cls-2" d="M33.17,67.56H45a4.13,4.13,0,0,1,3.75,2.26c.47,1-.3.71-.17,3.28.18,3.67,3.17,2.57,3.17,2.57s3.8-.92,3.25,2.57C54.58,81,56.82,81,57.83,80.88a4,4,0,0,1,1.34.05c1.15.25,2.93,1,1.9,3.18-1.47,3.12,1.65,3.12,1.65,3.12a2.28,2.28,0,0,1,3.08,1,3.64,3.64,0,0,0,1,1c.93.66,2.42,1.34,2.91-.63.74-2.94,2.76-1.65,2.76-1.65s3.3.55,2.38-2.21,1.65-2.38,1.65-2.38a3.12,3.12,0,0,0,2.76-3.3C79.05,76.22,82,76.77,82,76.77s4.22.73,3.48-1.84a2.45,2.45,0,0,1,1.44-3,4.13,4.13,0,0,0,1.61-1.44c.14-.22.27-.44.37-.63a4.22,4.22,0,0,1,3.76-2.3h6.13A4.23,4.23,0,0,1,103,71.79v33.82a4.23,4.23,0,0,1-4.23,4.23h-94A4.23,4.23,0,0,1,.5,105.61V71.79a4.23,4.23,0,0,1,4.23-4.23H23.81"/>
  <path id="Ground_hole" class="cls-1" d="M19.22,83.28c0,3-1.15,5.42-2.56,5.42s-2.57-2.43-2.57-5.42,1.15-5.41,2.57-5.41S19.22,80.29,19.22,83.28Zm11.25-5.41A2.43,2.43,0,1,0,32.9,80.3,2.43,2.43,0,0,0,30.47,77.87ZM11.7,98.06a2.39,2.39,0,1,0,2.39,2.38A2.39,2.39,0,0,0,11.7,98.06ZM37,93.29a3.07,3.07,0,1,0,3.07,3.07A3.07,3.07,0,0,0,37,93.29Zm12.8-15.42a2.71,2.71,0,1,0,2.7,2.71A2.71,2.71,0,0,0,49.83,77.87ZM72.06,94.62c-.63-.79-2.58-.26-4.36,1.16S65,99,65.62,99.78,68.2,100,70,98.62,72.69,95.4,72.06,94.62ZM94.68,79a2.73,2.73,0,1,0,2.72,2.72A2.72,2.72,0,0,0,94.68,79ZM89.24,97.2a3.16,3.16,0,1,0,3.41,3.15A3.28,3.28,0,0,0,89.24,97.2Z"/>
</svg>
